<svg id="Group_1" data-name="Group 1" xmlns="http://www.w3.org/2000/svg" viewBox="0 0 908.51 121.67"><defs><style>.cls-1{fill:#fff;}</style></defs><g id="Sayed_Ahmed_Pallab" data-name="Sayed Ahmed Pallab"><path class="cls-1" d="M167,76.54a.78.78,0,0,1,.51.66,1.69,1.69,0,0,1-.24,1.11,3.68,3.68,0,0,1-.65.82,7.68,7.68,0,0,1-1,.86c-.18.1-.32.18-.42.25a5.29,5.29,0,0,1-.48.29l-.12.06s0,0-.12,0l-.27.14c-.32.16-.75.35-1.28.57l-2.08.84q-1.59.57-4,1.32t-6.24,1.59l0,0c-.64.16-1.31.31-2,.45l-2.17.45c-.72.16-1.48.31-2.28.46s-1.62.32-2.46.5l-3.36.75q-1.74.39-3.66.9c.1.48.18,1,.24,1.48a10.89,10.89,0,0,1,.06,1.64,8.91,8.91,0,0,1-1,3.66,9.78,9.78,0,0,1-1.14,1.71,11.94,11.94,0,0,1-1.59,1.59,13.56,13.56,0,0,1-2,1.36,15.85,15.85,0,0,1-2.28,1.07,18.3,18.3,0,0,1-3.2.76,16.21,16.21,0,0,1-3,.17,14.74,14.74,0,0,1-2.82-.32,9.13,9.13,0,0,1-2.43-.88,5.49,5.49,0,0,1-1.11-.89,2.91,2.91,0,0,1-.72-1.3,2.69,2.69,0,0,1,0-1.44,4.25,4.25,0,0,1,.57-1.17,7.76,7.76,0,0,1,1.44-1.56,19.27,19.27,0,0,1,1.56-1.14,27.4,27.4,0,0,1,3-1.65c1-.46,2-.9,3-1.32h0c.94-.38,1.94-.76,3-1.13s2.23-.75,3.51-1.15l1.8-.54h.12l.06,0c-.2-.58-.44-1.2-.72-1.85s-.53-1.21-.75-1.69c-.66-1.32-1.35-2.57-2.06-3.74s-1.45-2.36-2.23-3.58q-.87-1.32-1.89-2.76l-2.31-3.24q-1-1.44-2.25-3.15a.56.56,0,0,1-.11-.17.49.49,0,0,0-.1-.16l0,0c-.68-1-1.4-2-2.15-3.12s-1.54-2.4-2.38-3.84c-.42-.72-.83-1.51-1.22-2.36a18.74,18.74,0,0,1-1-2.77,9.54,9.54,0,0,1-.35-1.64,6.61,6.61,0,0,1,0-1.72,5.19,5.19,0,0,1,.54-1.83,5.74,5.74,0,0,1,1.17-1.59,8.21,8.21,0,0,1,1.6-1.13,15,15,0,0,1,1.61-.73c.54-.18,1.09-.34,1.66-.47l1.61-.34a30,30,0,0,1,3.06-.32c1,0,2-.07,3-.07,1.94,0,3.76.06,5.47.18a40.31,40.31,0,0,1,4.88.63q1.11.24,2.22.54a13.93,13.93,0,0,1,2.16.78,13.33,13.33,0,0,1,2,1,9,9,0,0,1,1.62,1.32,6.44,6.44,0,0,1,1.2,1.74,7.1,7.1,0,0,1,.6,1.92,8.28,8.28,0,0,1,.09,1.23,8.53,8.53,0,0,1-.08,1.15,7.24,7.24,0,0,1-.22,1.07,16.18,16.18,0,0,1-1,2.64,23,23,0,0,1-1.11,2c-.36.6-.72,1.14-1.07,1.63s-.66.91-.94,1.25q-.87,1.08-1.41,1.68t-.78.84h0a5.45,5.45,0,0,1-1,.81,4,4,0,0,1-.94.48,2.27,2.27,0,0,1-.81.13.76.76,0,0,1-.57-.25c-.24-.28-.24-.72,0-1.32A6.17,6.17,0,0,1,138.2,65l0,.06.51-.51c.12-.12.25-.27.4-.44l.59-.64c.2-.22.41-.47.64-.74s.51-.6.83-1v0c.3-.4.62-.85,1-1.34a15,15,0,0,0,1-1.69c.18-.34.35-.7.51-1.07s.31-.76.45-1.18a7.34,7.34,0,0,0,.27-1.26,6.88,6.88,0,0,0,0-1.44,5.56,5.56,0,0,0-.45-1.4,4.58,4.58,0,0,0-.93-1.3,7.09,7.09,0,0,0-1.53-1.14,13.44,13.44,0,0,0-1.95-.9,23.94,23.94,0,0,0-4.89-1.22q-2.73-.41-5.82-.55l-1.44,0h-1.47l-1.88,0c-.65,0-1.29.06-1.93.12s-1.21.14-1.82.24a17,17,0,0,0-1.78.39,12.6,12.6,0,0,0-1.68.61,5.39,5.39,0,0,0-1.53,1,3.48,3.48,0,0,0-.9,1.26,4.24,4.24,0,0,0-.33,1.47,5.63,5.63,0,0,0,.1,1.59,15.65,15.65,0,0,0,.41,1.53v0a21.82,21.82,0,0,0,1.23,2.85q.69,1.32,1.41,2.49,1.35,2.19,2.56,3.91c.81,1.15,1.59,2.24,2.33,3.26l.28.39.29.36L124,70.42l3.49,4.75q1.55,2.11,2.72,4c.46.68.91,1.38,1.35,2.11a24.48,24.48,0,0,1,1.17,2.18q.42.78.78,1.62t.69,1.8q3.39-.93,6.28-1.62T145.7,84q.6-.15,1.17-.24a9.93,9.93,0,0,0,1.11-.24q3.18-.75,5.49-1.43c1.54-.45,2.85-.87,3.93-1.27.92-.34,1.74-.67,2.47-1s1.32-.59,1.76-.81.88-.45,1.27-.68.81-.49,1.25-.79c.28-.18.55-.35.81-.5s.49-.27.69-.37a5,5,0,0,1,.72-.26A.94.94,0,0,1,167,76.54ZM131.69,94.42a5.65,5.65,0,0,0,.61-1.64,8.14,8.14,0,0,0,.17-1.6,8.69,8.69,0,0,0-.06-1c0-.33-.09-.65-.15-1-.4.1-.8.21-1.2.34l-1.23.41c-1.18.34-2.42.74-3.71,1.21s-2.57,1-3.85,1.58c-.6.28-1.23.59-1.88.93a18.73,18.73,0,0,0-1.93,1.17l-.86.61a7.14,7.14,0,0,0-.85.74,6.64,6.64,0,0,0-.68.72,2,2,0,0,0-.4.75,1,1,0,0,0,.42,1.08,2.57,2.57,0,0,0,.85.49c.35.13.7.25,1,.35a11.69,11.69,0,0,0,1.36.22,13.83,13.83,0,0,0,1.46.08c.34,0,.69,0,1,0l1.11-.1h0a13.41,13.41,0,0,0,2.52-.56,14.89,14.89,0,0,0,2.49-1.06v0a10.93,10.93,0,0,0,2.13-1.55A7.61,7.61,0,0,0,131.69,94.42Z" transform="translate(-112.3 -33.87)"/><path class="cls-1" d="M164.8,77.11a1.71,1.71,0,0,1,1.21-.47,1.31,1.31,0,0,1,1,.44,1.33,1.33,0,0,1,.23,1.06,1.84,1.84,0,0,1-.65,1.1l0,0-.15.09-.13.1-.12.08c-.1.06-.25.17-.46.33l-1,.75c-.38.32-.85.73-1.41,1.24s-1.22,1.16-2,1.94l-.12.12c-.34.38-.72.82-1.13,1.32s-.83,1-1.23,1.59-.86,1.29-1.33,2.07a12.38,12.38,0,0,0-1.13,2.61.26.26,0,0,0,0,.1.23.23,0,0,1,0,.11c0,.06-.08.12-.13.19s-.08.1-.14.08.12,0,.35-.09l.36-.11a2.17,2.17,0,0,0,.33-.1,13.34,13.34,0,0,0,1.67-.86l1.85-1.12c.63-.4,1.27-.82,1.91-1.25l2-1.36h0l.51-.38.54-.37.54-.39.12-.11.09-.07.33-.06,1.14,0,.36.27.52.33a4.34,4.34,0,0,0,.56.33h.21l-.06,0-.06,0a12,12,0,0,0,1.12.6v0c1.13.64,2.07,1.13,2.81,1.47s1.4.63,2,.87,1.15.48,1.71.67l1.8.62c.58.16,1.25.32,2,.49a22.3,22.3,0,0,0,2.67.41,6.18,6.18,0,0,0,.65,0h.7l1.07,0c.39,0,.78-.06,1.18-.12a15.76,15.76,0,0,0,2.19-.5,17.08,17.08,0,0,0,2.44-.94,44.48,44.48,0,0,0,4.75-2.61q2.06-1.32,3.67-2.49c1.1-.78,2.06-1.52,2.88-2.21l2.14-1.81c.91-.84,1.64-1.53,2.18-2.06s.93-.92,1.17-1.18l.21-.21a1.93,1.93,0,0,1,1.11-.57,1.21,1.21,0,0,1,1.43,1.38,2,2,0,0,1-.62,1.2l-.27.22-.46.41-.83.69-1.34,1.11c-.53.46-1.21,1-2,1.63s-1.88,1.39-3.1,2.27c-.56.4-1.21.84-1.94,1.32s-1.55,1-2.42,1.48-1.8,1-2.77,1.55-2,1-3,1.5A19.53,19.53,0,0,1,189.39,93a17.75,17.75,0,0,1-2.81.53,18.18,18.18,0,0,1-1.82.09c-.47,0-.93,0-1.39,0l-1.26-.1a26.52,26.52,0,0,1-3.19-.5c-.93-.21-1.78-.41-2.53-.61s-1.49-.45-2.17-.68-1.42-.51-2.21-.85c-.41-.18-.82-.38-1.25-.59s-.89-.45-1.37-.73l-.75-.44-.81-.46-.72-.45q-2.34,1.47-4.06,2.47c-1.15.67-2.23,1.26-3.23,1.76-.43.22-.89.43-1.37.64a14.06,14.06,0,0,1-1.5.56,4.37,4.37,0,0,1-1.09.12l-.28-.06a1,1,0,0,1-.34-.18l0,0a1.13,1.13,0,0,1-.66-.9,2.39,2.39,0,0,1,0-.53c0-.17.06-.33.09-.49v-.09c0-.1.06-.23.1-.39a3,3,0,0,1,.15-.48,12.88,12.88,0,0,1,1-2.51c.4-.73.79-1.39,1.16-2s.78-1.2,1.15-1.67.7-.9,1-1.3v0c.57-.74,1.1-1.38,1.57-1.91s.87-1,1.21-1.33l.22-.21.34-.38a2.81,2.81,0,0,1,.29-.31c.21-.24.41-.45.58-.62l.46-.46q.21-.21.42-.39T164.8,77.11Z" transform="translate(-112.3 -33.87)"/><path class="cls-1" d="M255,77.74a5.9,5.9,0,0,1,1.13-.51,4.83,4.83,0,0,1,1-.23,2.29,2.29,0,0,1,.81,0,.78.78,0,0,1,.48.33c.18.34.07.77-.33,1.3a5.86,5.86,0,0,1-1.71,1.46h0a2.37,2.37,0,0,1-.34.19l-.38.2-.49.24-.72.39-1.08.61-1.55.92h0c-1,.6-2.15,1.38-3.58,2.35s-3.16,2.25-5.18,3.83c-1,.82-2.08,1.72-3.25,2.71s-2.41,2.11-3.71,3.35-2.65,2.61-4.06,4.12-2.87,3.19-4.37,5h0q-2.43,3-4.9,6.73A91.63,91.63,0,0,0,218.1,119q-2.35,4.47-4.56,9.73t-4.1,11.39a2.87,2.87,0,0,1-.3.66l0,0-.09.15a2,2,0,0,0-.12.21l-.18.18.09-.27a1.45,1.45,0,0,1-.27.31,2.18,2.18,0,0,1-.33.26,3,3,0,0,1-.45.09,1.12,1.12,0,0,1-.45,0,1.45,1.45,0,0,1-.72-.51l.06.06a.09.09,0,0,1,0-.05l0,0-.16-.18a.36.36,0,0,1-.08-.24s0,0,.06.09l-.06-.12v-.06a.07.07,0,0,0,0-.05.05.05,0,0,1,0,0v.09a.74.74,0,0,1-.06-.27.33.33,0,0,1,0-.15v-.87a1.49,1.49,0,0,1,0-.17,1,1,0,0,0,0-.16l.12-1q.06-.48.12-.93c.1-.6.22-1.19.36-1.76l.39-1.6q.78-3,1.47-5.31c.48-1.54.94-3,1.37-4.31s.89-2.71,1.39-4.15c.16-.4.31-.82.45-1.25s.29-.87.45-1.33l1.62-4.61q.9-2.57,2.1-5.91l2.72-7.57q1.51-4.23,3.49-9.6l1.17-3.17c.38-1,.76-2,1.14-3l.33-.9.36-1-2.85,2.07q-1.38,1-2.7,1.86-2,1.35-3.78,2.47c-1.2.75-2.34,1.42-3.42,2a28.86,28.86,0,0,1-3.33,1.53q-.42.15-.87.27t-1,.21l-.52,0a2.38,2.38,0,0,1-.59,0,2,2,0,0,1-.66-.18,2.3,2.3,0,0,1-.66-.48l-.12-.12a.51.51,0,0,1-.21-.27l-.12-.21-.09-.18a.76.76,0,0,1,0-.11.93.93,0,0,0,0-.1c-.1-.32-.16-.53-.19-.63s-.06-.19-.08-.27a8.13,8.13,0,0,1,0-1.71,7.21,7.21,0,0,1,.23-1.29l.31-1.14q.33-1,.66-1.74t.63-1.44a.23.23,0,0,0,0-.09.23.23,0,0,1,0-.09c.42-.84.77-1.5,1-2l.55-1a7.55,7.55,0,0,1,.77-1,4.37,4.37,0,0,1,.81-.72,2,2,0,0,1,.75-.33.8.8,0,0,1,.58.09,1.24,1.24,0,0,1,.32,1.3,6.52,6.52,0,0,1-.83,2.09l0,0a.36.36,0,0,1-.07.1.44.44,0,0,0-.08.11l-.37.64-.62,1a8.2,8.2,0,0,0-.49.87c-.17.34-.36.74-.56,1.2s-.41.91-.63,1.48a13.35,13.35,0,0,0-.57,2,2.63,2.63,0,0,0-.07.49c0,.17,0,.31,0,.41a4.15,4.15,0,0,0,0,.49,1.34,1.34,0,0,0,.12.44,0,0,0,0,0,0,0h.36l.68-.09a3.27,3.27,0,0,0,.7-.21,26.87,26.87,0,0,0,3.44-1.55q1.85-1,3.88-2.23t4.43-2.87q2.42-1.64,5.05-3.52l.36-.27.51-.36.51-.36a.08.08,0,0,1,0,0s0,0,0,0l.09-.18,0,.15a.85.85,0,0,0,.18-.15l.18-.12.24-.23.21-.19.66.52.24.18.08.06.16.11-.18.45q-.09.21-.21.45a2.21,2.21,0,0,1-.09.24h0l0,0a.2.2,0,0,1-.06.15c-.08.2-.15.38-.21.55s-.13.36-.21.56l-.42,1.09c-.14.37-.29.75-.45,1.13-.46,1.14-.92,2.33-1.39,3.57l-1.46,3.84q-1.86,4.86-3.33,8.85t-2.62,7.27q-1.15,3.28-2.06,5.94t-1.6,4.88c-.47,1.48-.9,2.84-1.28,4.08s-.73,2.41-1.05,3.51v0c-.2.7-.39,1.39-.58,2.07s-.38,1.36-.56,2q1-2.31,1.94-4.25c.63-1.29,1.23-2.5,1.81-3.64.74-1.4,1.45-2.69,2.12-3.87s1.32-2.28,2-3.3,1.26-2,1.86-2.91,1.22-1.83,1.85-2.73,1.29-1.82,2-2.75,1.44-1.9,2.26-2.92a97.92,97.92,0,0,1,7.34-8.16q3.4-3.33,6.07-5.67t4.67-3.84c1.31-1,2.43-1.85,3.37-2.55s1.73-1.24,2.37-1.68l1.7-1.16c.49-.33.94-.62,1.35-.88S254.52,78,255,77.74Zm-48.66,62.85a.09.09,0,0,0,0,.06v0A.12.12,0,0,1,206.38,140.59Z" transform="translate(-112.3 -33.87)"/><path class="cls-1" d="M256.27,76.57a1.58,1.58,0,0,1,1.22.18,1.27,1.27,0,0,1,.61.93,1.25,1.25,0,0,1-.27,1,1.73,1.73,0,0,1-1,.6h0a.66.66,0,0,1-.22.06h-.2l-.48,0a9.34,9.34,0,0,0-1,.18.53.53,0,0,1-.24.06l-1.3.42a7.91,7.91,0,0,0-1.85,1,5.45,5.45,0,0,0-1,.85,3.61,3.61,0,0,0-.77,1.31,3.4,3.4,0,0,0-.18,1.08,6.15,6.15,0,0,0,.75,2.79,4.86,4.86,0,0,0,1.8,1.89c.44.28.91.54,1.4.79a8.45,8.45,0,0,0,1.6.62,21.17,21.17,0,0,0,3.74.85,38.33,38.33,0,0,0,4.36.35c1,0,1.79,0,2.49,0l1.92-.13h.15c.58,0,1.12-.09,1.61-.14s1-.12,1.6-.22,1.2-.22,1.86-.36,1.41-.32,2.25-.54h0c.88-.26,1.9-.6,3.05-1s2.48-1,4-1.68,2.89-1.46,4.11-2.16,2.31-1.37,3.27-2,1.9-1.23,2.63-1.76,1.35-1,1.87-1.42c1.06-.8,1.84-1.41,2.33-1.82l1-.85a1.57,1.57,0,0,1,1.14-.38,1.29,1.29,0,0,1,1.23,1.52,1.62,1.62,0,0,1-.6,1c-.1.08-.23.17-.4.28l-.86.59-.64.42-.86.57c-.18.1-.36.21-.55.34l-.62.44-1.54,1-1.91,1.2c-1.08.64-2.33,1.35-3.76,2.14s-3.13,1.63-5.09,2.51-3.43,1.43-4.78,1.89-2.54.85-3.56,1.17-1.92.54-2.7.73l-2.13.53a18.42,18.42,0,0,1-1.83.33l-2.07.24A17.68,17.68,0,0,1,264,94c-.58,0-1.19,0-1.84-.08s-1.36-.13-2.12-.25a24,24,0,0,1-4.2-1,23.25,23.25,0,0,1-3-1.26c-.38-.2-.77-.43-1.18-.69a9,9,0,0,1-1.1-.81,7.22,7.22,0,0,1-1-1,5,5,0,0,1-.81-1.33v0a7.67,7.67,0,0,1-.93-3.54,5.23,5.23,0,0,1,.09-1,5.59,5.59,0,0,1,.75-1.83,7.14,7.14,0,0,1,1-1.29,10.75,10.75,0,0,1,1.86-1.4c.58-.33,1.07-.59,1.47-.79a.26.26,0,0,0,.18-.09l1-.44L255,77a6.46,6.46,0,0,1,.63-.2l.66-.16Z" transform="translate(-112.3 -33.87)"/><path class="cls-1" d="M347.23,77.35a.69.69,0,0,1,0,.58,2.46,2.46,0,0,1-.45.71,4.71,4.71,0,0,1-.8.7,7.22,7.22,0,0,1-1.11.65l-.43.19-.44.2-.49.19-.77.3-1.15.5-1.67.72-2.07.9-2.7,1.17-2.49,1.09-3,1.28-.85.36-.89.39-3.34,1.41c-1.19.5-2.46,1-3.8,1.56l-2.74,1c-.95.36-1.94.71-3,1a1.07,1.07,0,0,1-.25.07,1.23,1.23,0,0,0-.26.08l-1.47.46c-.5.15-.95.27-1.35.35a1.68,1.68,0,0,1-.43.07l-.53.05h-.3l-.15,0-.21,0a1.16,1.16,0,0,1-.24-.07,1.15,1.15,0,0,1-.49-.39,1.51,1.51,0,0,1-.23-.48v0a3.72,3.72,0,0,1-.18-1,6.9,6.9,0,0,1,0-.91,1.49,1.49,0,0,1,0-.17,1,1,0,0,0,0-.16c.16-1.32.4-2.69.71-4.11s.66-2.91,1.06-4.47c.14-.58.25-1,.32-1.29s.13-.54.19-.77.14-.49.23-.79.22-.77.4-1.41q-2.55,3.24-4.87,5.83T302.5,88q-1.8,1.65-3.57,3a17.6,17.6,0,0,1-3.75,2.25,8.85,8.85,0,0,1-1,.37,6.43,6.43,0,0,1-1.07.23,5.18,5.18,0,0,1-1.24,0,3.34,3.34,0,0,1-1.22-.42l0,0a3.4,3.4,0,0,1-.58-.38,3.25,3.25,0,0,1-.53-.52,2.4,2.4,0,0,1-.31-.62,4.64,4.64,0,0,1-.17-.64,3.7,3.7,0,0,1,0-1.1,8.68,8.68,0,0,1,.19-.94,9.56,9.56,0,0,1,.54-1.55c.2-.43.4-.84.6-1.24q.66-1.17,1.26-2.1c.4-.6.78-1.15,1.14-1.64l1-1.3q.87-1.14,1.41-1.8t.78-.9a6.62,6.62,0,0,1,.9-.86,5.11,5.11,0,0,1,.92-.58,2.08,2.08,0,0,1,.81-.23.81.81,0,0,1,.58.17.82.82,0,0,1,.23.57,2.3,2.3,0,0,1-.14.81,4.38,4.38,0,0,1-.45.93,7.51,7.51,0,0,1-.72,1,5.94,5.94,0,0,1-.39.48l-.54.6a3.65,3.65,0,0,0-.27.3l-.3.36q-.33.36-.69.81L295,84.13a.64.64,0,0,0-.1.13.76.76,0,0,1-.11.14q-.45.6-1,1.38t-1.05,1.59c-.2.32-.39.67-.58,1a10.61,10.61,0,0,0-.53,1.26q-.09.3-.15.57a2.35,2.35,0,0,0-.06.51.62.62,0,0,0,.27.6,1.87,1.87,0,0,0,.9.21,4.79,4.79,0,0,0,2-.51,19,19,0,0,0,1.85-1,23.43,23.43,0,0,0,1.93-1.36,50,50,0,0,0,4.07-3.6q2.11-2.07,4.3-4.5,1.56-1.8,3.24-3.83t3.39-4.27s0-.07,0-.08,0,0,0-.07Q315,67.24,317,61.54t4.5-11.94q1.59-3.84,2.93-6.72T327,37.69l.18-.3.54-.89c.18-.29.4-.6.66-.94s.28-.38.41-.54.24-.29.34-.39l.48-.36a2.19,2.19,0,0,1,.57-.3,1.68,1.68,0,0,1,.41-.09,1.53,1.53,0,0,1,.58.06l0,0a1.34,1.34,0,0,1,.56.22,1.66,1.66,0,0,1,.37.38,4.13,4.13,0,0,1,.69,1.33,7.05,7.05,0,0,1,.27,1.37,12,12,0,0,1-.09,2.55,19.83,19.83,0,0,1-.55,2.55c-.25.88-.55,1.77-.89,2.67s-.73,1.88-1.17,2.94-.95,2.16-1.53,3.3q-1.74,3.48-4.35,8t-6.69,10.34l-.45.63c-.34.5-.68,1-1,1.48l-1,1.43-.48,1.54c-.16.51-.32,1-.48,1.49-.08.22-.15.44-.21.67s-.13.46-.21.68v0c-.36,1.18-.69,2.3-1,3.37S312.29,83,312,84.1c-.14.54-.27,1.08-.39,1.63s-.24,1.12-.36,1.7a.49.49,0,0,1,0,.12.51.51,0,0,0,0,.09c-.1.54-.19,1.09-.28,1.66a14.27,14.27,0,0,0-.17,1.73,1.51,1.51,0,0,0,0,.6h.15a.51.51,0,0,0,.21,0,.57.57,0,0,1,.18,0,.57.57,0,0,0,.18,0q.6-.15,1.29-.36l1.38-.45q2.55-.87,4.86-1.83t4.17-1.74q1.92-.84,3.57-1.59,3.33-1.5,5.6-2.58l3.88-1.86,2.57-1.26,1.81-.9,1.52-.75,1.54-.75a7.37,7.37,0,0,1,1.19-.42,4.94,4.94,0,0,1,1.06-.17,2.32,2.32,0,0,1,.83.11A.76.76,0,0,1,347.23,77.35ZM320.5,58.57q-1,2.43-1.74,4.54l-1.47,4q2-2.85,3.66-5.55T324,56.41q1.39-2.46,2.52-4.65c.75-1.46,1.39-2.79,1.93-4s1-2.46,1.38-3.66a30.94,30.94,0,0,0,.93-3.36c.1-.52.18-1,.24-1.52a6.28,6.28,0,0,0,0-1.36,5.68,5.68,0,0,0-.21-1.2l-.09-.23-.09-.22-.09.09c-.1.12-.2.26-.31.42l-.32.48q-.33.51-.66,1.08t-.57,1.08c-.4.76-.78,1.53-1.15,2.32s-.76,1.64-1.16,2.54q-1.14,2.55-2.65,6.24T320.5,58.57Zm10-22.53q.06.12.15.12a.09.09,0,0,1,0,0l0,0s0,0,0-.06,0,0-.06,0Zm.06,0,0,0Z" transform="translate(-112.3 -33.87)"/><path class="cls-1" d="M459,77.38c.2.32.13.75-.22,1.3a4.55,4.55,0,0,1-1.64,1.46l-.66.33h0l-.22.12-.29.12h0l-.31.13-.38.17h0l-1.08.51-1.65.72h0a.48.48,0,0,1-.21.07.49.49,0,0,0-.21.08q-1.44.6-3.66,1.44A55.32,55.32,0,0,1,443,85.54q-1.71.42-3.75.78t-4.38.54l-.12.42-.12.42c-.22.7-.45,1.37-.7,2A16.88,16.88,0,0,1,433,91.6a11.37,11.37,0,0,1-.63,1,2.32,2.32,0,0,1-.9.72l0,0a4,4,0,0,1-2.07.54,4.63,4.63,0,0,1-1.87-.42,8,8,0,0,1-1.52-.93h0a7.6,7.6,0,0,1-1.21-1.11c-.35-.4-.7-.82-1-1.26a10.17,10.17,0,0,1-.67-1.1l-.84-1.54-.83-1.55-.57-1.06,9.54.33q.69,0,1.32,0l1.29-.06h0l.06,0c.18-.78.34-1.54.48-2.27l.45-2.35q.48-2.61.9-5.4t.81-5.7v0q.48-3.81.75-6.57t.48-5a2.13,2.13,0,0,1,0-.27,1.93,1.93,0,0,0,0-.24c.1-1.36.19-2.63.26-3.81s.11-2.43.13-3.75c0-.68,0-1.4,0-2.15a22.76,22.76,0,0,0-.17-2.38.25.25,0,0,0,0-.08.3.3,0,0,1,0-.1v0c-.06-.38-.12-.77-.19-1.16a3.67,3.67,0,0,0-.32-1l0-.06c-.16.08-.33.18-.52.3s-.38.25-.56.39q-1.35,1-2.82,2.37t-3.09,3q-1.68,1.68-3.52,3.63t-4,4.29q-4.2,4.56-7.8,8.64L408,72.7q-2.25,2.58-4.12,4.78t-3.41,4l-.75.87-.72.84q-2.52,3-4,4.74l-2.21,2.64,0,0a6,6,0,0,1-.43.54c-.13.14-.23.25-.29.33a4.91,4.91,0,0,1-1.69,1.32c-.59.26-1,.27-1.31,0s-.34-.67-.18-1.28a5,5,0,0,1,1-1.87c.1-.12.23-.27.39-.44l.57-.61c.36-.38.88-1,1.56-1.7l2.88-3.19,2-2.18,2.44-2.74,2.12-2.37,2.41-2.7,7.16-7.92q4.07-4.5,9.43-10.2,2.43-2.61,4.65-4.85t4.11-4.09c.64-.64,1.27-1.25,1.89-1.82s1.22-1.1,1.8-1.6l.24-.21.21-.18.62-.48c.21-.16.46-.34.76-.54l0,0a5,5,0,0,1,.48-.3l.54-.3a1.42,1.42,0,0,1,.87-.15,1.36,1.36,0,0,1,.47.15,1.54,1.54,0,0,1,.37.27,2.26,2.26,0,0,1,.57.87q.15.45.3.87a.22.22,0,0,1,0,.1.26.26,0,0,0,0,.11q.09.39.18.84t.15.84a.5.5,0,0,0,0,.12.49.49,0,0,1,0,.12c.06.52.11,1.06.15,1.63s.07,1.09.09,1.55.07,1.21.08,1.83,0,1.19,0,1.71c0,.32,0,.63,0,.93s0,.59,0,.87c0,1.62-.09,3.19-.16,4.71s-.19,3.16-.35,4.92-.38,3.79-.66,6-.7,4.89-1.26,7.91c-.16.8-.3,1.52-.42,2.17s-.24,1.27-.37,1.85-.27,1.14-.41,1.69-.29,1.13-.45,1.73c1-.1,1.87-.23,2.72-.39L440.5,84l0,0a42.47,42.47,0,0,0,5.15-1.5c1.45-.54,2.65-1,3.61-1.41s1.56-.73,2.15-1l1.51-.79.11-.06.13-.06.8-.44c.25-.13.5-.27.76-.43l.5-.27.52-.3a5.23,5.23,0,0,1,2-.71A1.29,1.29,0,0,1,459,77.38ZM431.68,89.92c.18-.44.37-.94.56-1.49s.34-1,.46-1.45q-.45,0-.9,0h-.9L429,87c-.66,0-1.29,0-1.9,0s-1.17,0-1.68.08a5.58,5.58,0,0,0-1.31.24c.32.52.67,1,1,1.54a12.13,12.13,0,0,0,1.24,1.46,8.78,8.78,0,0,0,1.41,1.14,3.13,3.13,0,0,0,1.62.54,2.36,2.36,0,0,0,.75-.12l.39-.15.09-.08.06,0q.12-.06.09,0a2.47,2.47,0,0,0,.51-.69q.24-.45.45-.93Zm-1.32,1.89.09-.06,0,0Z" transform="translate(-112.3 -33.87)"/><path class="cls-1" d="M526.93,77.17c.22.32.15.78-.22,1.38a6.45,6.45,0,0,1-1.7,1.74l-.19.12-.26.15h0L524,81l-1,.63-2.35,1.45c-1,.61-2.2,1.34-3.62,2.18-.76.44-1.62.91-2.58,1.42s-2,1.06-3.21,1.64-2.44,1.14-3.9,1.75-3,1.2-4.74,1.76c-.9.28-1.82.54-2.76.79s-1.93.47-3,.65c-.76.12-1.55.22-2.38.3s-1.7.12-2.6.12H491a6.56,6.56,0,0,1-.92-.06,21.45,21.45,0,0,1-3.79-.6,17.42,17.42,0,0,1-3.8-1.44,18.06,18.06,0,0,1-6.66-5.91q-.6-.9-1.11-1.83T473.74,82l-.36-.92c-.12-.31-.23-.61-.33-.91l-.18-.6c-.94.58-1.83,1.14-2.68,1.69l-2.48,1.61q-2.64,1.71-4.83,3.18t-4.08,2.82c-.64.44-1.24.86-1.81,1.27s-1.12.82-1.64,1.22a1.48,1.48,0,0,0-.25.16l-.23.17c-.16.1-.3.2-.43.3l-.65.51-.21.15s-.06.07-.06.1a.26.26,0,0,1,0,.11.53.53,0,0,1-.06.15.82.82,0,0,1-.16.22.73.73,0,0,1-.27.17.51.51,0,0,1-.38,0l-.15.18-.84-.87,0-.33,0-.63.12-.06.12,0a.25.25,0,0,0,.12-.07l-.3.12.18-.18.12-.09,1.22-2.76,1.09-2.49.81-1.86.78-1.8.35-.8.25-.6c.08-.19.17-.4.26-.63s.21-.52.37-.88a2.17,2.17,0,0,1-.66-.11.74.74,0,0,1-.45-.31c-.18-.34-.07-.79.33-1.34A9,9,0,0,1,458,76.18l.26-.21.22-.18.27-.21.36-.3q1.2-2.73,2.76-6.15l3.69-8.07c.52-1.16,1-2.28,1.52-3.36s1-2.1,1.42-3.06l3.2-6.92q1.51-3.28,2.65-5.71l.06-.14.06-.13c.26-.54.51-1.07.74-1.59s.47-1,.73-1.56v0c.12-.28.25-.56.38-.83s.26-.53.4-.79l.18-.36.14-.23.13-.25a.69.69,0,0,0,.09-.15l.09-.12a.69.69,0,0,1,.21-.33.09.09,0,0,0,0-.05l0,0-.12.15a.57.57,0,0,1,.17-.21l.25-.21a2.11,2.11,0,0,1,.41-.24.93.93,0,0,1,.58-.06h-.06a1,1,0,0,1,.71.27,1.42,1.42,0,0,1,.37.51l0,0a2.86,2.86,0,0,1,.2.66,3.62,3.62,0,0,1,0,.54,5.61,5.61,0,0,1,0,.82c0,.27-.05.53-.09.77a1.62,1.62,0,0,1,0,.21,1.83,1.83,0,0,0,0,.21c-.08.56-.19,1.17-.34,1.83s-.32,1.36-.5,2.1q-.87,3.27-1.86,6T475.36,54q-1,2.37-1.92,4.38t-1.8,3.72q-1.77,3.42-3.22,5.7t-2.6,3.84c-.74,1-1.39,1.85-1.95,2.5s-1.06,1.22-1.5,1.7c-.28.3-.55.58-.82.84l-.83.78L459.13,81q-.72,1.58-1.38,3l-1.27,2.69c-.41.86-.83,1.72-1.25,2.58l2.42-1.67,2.74-1.87q1.68-1.14,3.62-2.42l4.27-2.8.9-.56c.3-.19.61-.39.93-.61l.29-.18.28-.18.66-.41.66-.4h0a.28.28,0,0,1,.12-.08.25.25,0,0,0,.12-.07l0,0a5.3,5.3,0,0,1,.57-.33l-.09.06a1.3,1.3,0,0,0,.56-.15.67.67,0,0,1,.34-.12.45.45,0,0,1,.32.21,5.9,5.9,0,0,1,.46.78.05.05,0,0,0,0,0,.07.07,0,0,1,0,0v-.06l.09.36a20.31,20.31,0,0,0,1.13,2.94,19.45,19.45,0,0,0,1.69,2.91,15.39,15.39,0,0,0,2.22,2.58,16.32,16.32,0,0,0,2.61,2,14.33,14.33,0,0,0,2.79,1.35,19,19,0,0,0,2.91.78h0q1,.15,1.89.24t1.8.09a23.63,23.63,0,0,0,3.65-.27c1.15-.18,2.26-.4,3.34-.66a38.3,38.3,0,0,0,4.46-1.35c1.39-.52,2.68-1,3.88-1.59s2.27-1,3.32-1.59,2-1,2.86-1.53q2.64-1.5,4.46-2.69l3.07-2c.84-.56,1.48-1,1.92-1.31s.75-.53.93-.67a8.36,8.36,0,0,1,1.14-.66,5.73,5.73,0,0,1,1-.39,2.33,2.33,0,0,1,.84-.08A.76.76,0,0,1,526.93,77.17Zm-53-29.67c-.34.76-.68,1.54-1,2.34s-.7,1.61-1,2.43q-1.8,4.11-3.72,8.56T464,70.21c.66-.84,1.38-1.83,2.16-3s1.62-2.46,2.52-4q1.05-1.83,2.16-4t2.31-4.83q1.14-2.64,2.31-5.84t2.16-6.82q.24-.93.45-2a14.35,14.35,0,0,0,.27-2.1l-.1.21a1.74,1.74,0,0,1-.11.18c-.64,1.32-1.27,2.68-1.9,4.09s-1.28,2.89-1.94,4.43l0,0a4.68,4.68,0,0,1-.19.45,4.68,4.68,0,0,0-.2.45Zm.45,31a.22.22,0,0,0,0-.09.14.14,0,0,1,0-.06Z" transform="translate(-112.3 -33.87)"/><path class="cls-1" d="M614.59,77.26a1.25,1.25,0,0,1-.13,1.23,3.22,3.22,0,0,1-1.34,1.26h0l-.25.16a3.62,3.62,0,0,1-.53.26h0l-.94.45c-.41.2-1,.53-1.88,1l0,0-.34.19-.38.23q-1.08.6-2.67,1.41l-3.84,2c-.86.44-1.82.92-2.89,1.44s-2.22,1-3.44,1.59-2.6,1.12-4.15,1.74-3.14,1.18-4.76,1.68a12.33,12.33,0,0,1-1.57.37,12.58,12.58,0,0,1-1.67.17,9,9,0,0,1-1.75-.18,9.45,9.45,0,0,1-1.79-.54,10.28,10.28,0,0,1-3.12-2.24,14.93,14.93,0,0,1-2.37-3.19,22.61,22.61,0,0,1-1.62-3.84,1.65,1.65,0,0,1-.09-.21,0,0,0,0,1,0,0l0,0q-1.71,1.47-3.54,2.89t-3.87,2.78A49.65,49.65,0,0,1,561,90.64a40.07,40.07,0,0,1-3.86,1.74,14.88,14.88,0,0,1-3.51.9,4.31,4.31,0,0,1-.67.07l-.74,0a8.31,8.31,0,0,1-1.21-.09,5.39,5.39,0,0,1-1.22-.33A6.08,6.08,0,0,1,548,91.78,8.11,8.11,0,0,1,546.52,90a12.38,12.38,0,0,1-1-2.28,18,18,0,0,1-.65-2.67v0a23.11,23.11,0,0,1-.31-2.37c-.07-.84-.11-1.75-.11-2.73v-.24l-.7.43-.68.47-1.71,1.08-1.8,1.14-.27.15-.27.18q-4.38,2.73-8.14,4.92t-7,3.75c-.52.26-1.06.5-1.62.73s-1.13.44-1.71.62h0a6.62,6.62,0,0,1-.84.24,3.47,3.47,0,0,1-.93.06l-.33,0a1.53,1.53,0,0,1-.42-.15,1.32,1.32,0,0,1-.48-.29,1.2,1.2,0,0,1-.3-.4,1.7,1.7,0,0,1-.07-.23c0-.11-.06-.19-.08-.25a.34.34,0,0,0,0-.09.51.51,0,0,1,0-.09,4.57,4.57,0,0,1,0-.62c0-.13.05-.27.09-.43a8.68,8.68,0,0,1,.41-1.22l.43-1a2.56,2.56,0,0,0,.11-.24,1,1,0,0,1,.1-.21,7.15,7.15,0,0,1,.36-.74c.14-.25.26-.48.36-.7a3.76,3.76,0,0,0,.18-.35,3.51,3.51,0,0,1,.18-.34l0,0c.66-1.26,1.25-2.35,1.76-3.26l1.27-2.26.48-.8c.14-.23.26-.43.36-.61s.19-.33.26-.44a3.08,3.08,0,0,0,.16-.28,4.29,4.29,0,0,1,1.29-1.32,1.09,1.09,0,0,1,1.23-.12,1.21,1.21,0,0,1,.44,1.15,3.8,3.8,0,0,1-.59,1.73l-.19.34c-.07.13-.17.29-.29.47l-1,1.56q-.69,1-1.92,3.06c-.32.52-.65,1.09-1,1.72s-.73,1.33-1.13,2.09l-.1.22-.11.23a12,12,0,0,0-.69,1.59,9.85,9.85,0,0,0,1-.27l.12,0,.12,0h0a32.23,32.23,0,0,0,3.62-1.55q1.91-.94,4.06-2.08h0q2.16-1.17,4.59-2.55t5.16-3l.27-.18.27-.18c.72-.46,1.42-.9,2.1-1.31s1.33-.81,1.95-1.21l.33-.23a2.83,2.83,0,0,1,.51-.28h0a1.73,1.73,0,0,1,.57-.26,1.48,1.48,0,0,0,.57-.28l.42-.42.09-.06.09-.06,1,.48v0s0,0,.06,0l-.09.54v.24a4.67,4.67,0,0,0,0,.52v.5a26.86,26.86,0,0,0,.21,3.94,20.51,20.51,0,0,0,.69,3.26,8.92,8.92,0,0,0,1.11,2.47,5.09,5.09,0,0,0,1.59,1.58,3.22,3.22,0,0,0,1.07.45,5.12,5.12,0,0,0,1.09.12,5,5,0,0,0,.71-.06l.73-.12c.62-.14,1.22-.3,1.79-.48a15.69,15.69,0,0,0,1.6-.6q.81-.36,1.68-.78t1.74-.93q1.8-1,4.14-2.54t5.22-3.67l1.73-1.34,1.6-1.27.06-.06.15-.14.18-.16h0l.24-.24.57.22.33.12.2.08.16.06v.51c.44.2.66.42.65.66a.55.55,0,0,1-.38.51v.09a0,0,0,0,0,0,0c.1.3.2.61.29.94s.18.64.28.92v0a15.67,15.67,0,0,0,2.85,5,6.8,6.8,0,0,0,3.81,2.31,7.19,7.19,0,0,0,1.56.18,8.24,8.24,0,0,0,1.56-.15,13.85,13.85,0,0,0,1.62-.42c1.46-.46,2.81-1,4-1.47s2.37-1,3.43-1.5h0c1.08-.52,2.08-1,3-1.47l2.5-1.29q2.28-1.23,3.9-2.15c1.08-.61,2-1.13,2.7-1.57s1.34-.82,1.8-1.13.87-.57,1.23-.79l1-.63,1.06-.63h0a3.5,3.5,0,0,1,1.74-.6,1.26,1.26,0,0,1,1.17.45Zm-39.78,2.85s0,.06,0,.06a.07.07,0,0,0,0,0,.05.05,0,0,1,0,0Z" transform="translate(-112.3 -33.87)"/><path class="cls-1" d="M612.4,76.57a1.58,1.58,0,0,1,1.22.18,1.27,1.27,0,0,1,.61.93,1.25,1.25,0,0,1-.27,1,1.73,1.73,0,0,1-1,.6h0a.66.66,0,0,1-.22.06h-.2l-.48,0a9.34,9.34,0,0,0-1,.18.53.53,0,0,1-.24.06l-1.3.42a7.91,7.91,0,0,0-1.85,1,5.45,5.45,0,0,0-1,.85A3.61,3.61,0,0,0,606,83.2a3.4,3.4,0,0,0-.18,1.08,6.15,6.15,0,0,0,.75,2.79,4.86,4.86,0,0,0,1.8,1.89c.44.28.91.54,1.4.79a8.45,8.45,0,0,0,1.6.62,21.17,21.17,0,0,0,3.74.85,38.33,38.33,0,0,0,4.36.35c1,0,1.79,0,2.49,0l1.92-.13H624c.58,0,1.12-.09,1.61-.14s1-.12,1.6-.22,1.2-.22,1.86-.36,1.41-.32,2.25-.54h0c.88-.26,1.9-.6,3.05-1s2.48-1,4-1.68,2.89-1.46,4.11-2.16,2.31-1.37,3.27-2,1.9-1.23,2.63-1.76,1.35-1,1.87-1.42c1.06-.8,1.84-1.41,2.33-1.82l1-.85a1.57,1.57,0,0,1,1.14-.38,1.29,1.29,0,0,1,1.23,1.52,1.62,1.62,0,0,1-.6,1c-.1.08-.23.17-.4.28l-.86.59-.64.42-.86.57c-.18.1-.36.21-.55.34l-.62.44-1.54,1-1.91,1.2c-1.08.64-2.33,1.35-3.76,2.14s-3.13,1.63-5.09,2.51-3.43,1.43-4.78,1.89-2.54.85-3.56,1.17-1.92.54-2.7.73l-2.13.53a18.42,18.42,0,0,1-1.83.33l-2.07.24a17.68,17.68,0,0,1-1.92.09c-.58,0-1.19,0-1.84-.08s-1.36-.13-2.12-.25a24,24,0,0,1-4.2-1,23.25,23.25,0,0,1-3-1.26c-.38-.2-.77-.43-1.18-.69a9,9,0,0,1-1.1-.81,7.22,7.22,0,0,1-1-1,5,5,0,0,1-.81-1.33v0a7.67,7.67,0,0,1-.93-3.54,5.23,5.23,0,0,1,.09-1,5.59,5.59,0,0,1,.75-1.83,7.14,7.14,0,0,1,1-1.29,10.75,10.75,0,0,1,1.86-1.4c.58-.33,1.07-.59,1.47-.79a.26.26,0,0,0,.18-.09l1-.44.73-.28a6.46,6.46,0,0,1,.63-.2l.66-.16Z" transform="translate(-112.3 -33.87)"/><path class="cls-1" d="M703.36,77.35a.69.69,0,0,1,0,.58,2.46,2.46,0,0,1-.45.71,4.71,4.71,0,0,1-.8.7A7.22,7.22,0,0,1,701,80l-.43.19-.44.2-.49.19-.77.3-1.15.5-1.67.72L694,83l-2.7,1.17-2.49,1.09-3,1.28-.85.36-.89.39-3.34,1.41c-1.19.5-2.46,1-3.8,1.56l-2.74,1c-1,.36-1.94.71-3,1a1.07,1.07,0,0,1-.25.07,1.23,1.23,0,0,0-.26.08l-1.47.46c-.5.15-1,.27-1.35.35a1.68,1.68,0,0,1-.43.07l-.53.05h-.3l-.15,0-.21,0a1.16,1.16,0,0,1-.24-.07,1.15,1.15,0,0,1-.49-.39,1.51,1.51,0,0,1-.23-.48v0a3.72,3.72,0,0,1-.18-1,6.9,6.9,0,0,1,0-.91,1.49,1.49,0,0,1,0-.17,1,1,0,0,0,0-.16c.16-1.32.4-2.69.71-4.11s.66-2.91,1.06-4.47c.14-.58.25-1,.32-1.29s.13-.54.19-.77.14-.49.23-.79.22-.77.4-1.41q-2.55,3.24-4.87,5.83T658.63,88q-1.8,1.65-3.57,3a17.6,17.6,0,0,1-3.75,2.25,8.85,8.85,0,0,1-1,.37,6.43,6.43,0,0,1-1.07.23,5.18,5.18,0,0,1-1.24,0,3.34,3.34,0,0,1-1.22-.42l0,0a3.4,3.4,0,0,1-.58-.38,3.25,3.25,0,0,1-.53-.52,2.4,2.4,0,0,1-.31-.62,4.64,4.64,0,0,1-.17-.64,3.7,3.7,0,0,1,0-1.1,8.68,8.68,0,0,1,.19-.94,9.56,9.56,0,0,1,.54-1.55c.2-.43.4-.84.6-1.24q.66-1.17,1.26-2.1c.4-.6.78-1.15,1.14-1.64l1-1.3q.87-1.14,1.41-1.8t.78-.9a6.62,6.62,0,0,1,.9-.86,5.11,5.11,0,0,1,.92-.58,2.08,2.08,0,0,1,.81-.23.81.81,0,0,1,.58.17.82.82,0,0,1,.23.57,2.3,2.3,0,0,1-.14.81,4.38,4.38,0,0,1-.45.93,7.51,7.51,0,0,1-.72,1,5.94,5.94,0,0,1-.39.48l-.54.6a3.65,3.65,0,0,0-.27.3l-.3.36q-.33.36-.69.81l-.87,1.08a.64.64,0,0,0-.1.13.76.76,0,0,1-.11.14q-.45.6-1,1.38t-1,1.59c-.2.32-.39.67-.58,1a10.61,10.61,0,0,0-.53,1.26q-.09.3-.15.57a2.35,2.35,0,0,0-.06.51.62.62,0,0,0,.27.6,1.87,1.87,0,0,0,.9.21,4.79,4.79,0,0,0,2-.51,19,19,0,0,0,1.85-1,23.43,23.43,0,0,0,1.93-1.36,50,50,0,0,0,4.07-3.6q2.11-2.07,4.3-4.5,1.56-1.8,3.24-3.83t3.39-4.27s0-.07,0-.08,0,0,0-.07q1.56-5.07,3.51-10.77t4.5-11.94q1.59-3.84,2.93-6.72t2.62-5.19l.18-.3.54-.89c.18-.29.4-.6.66-.94s.28-.38.41-.54.24-.29.34-.39l.48-.36a2.19,2.19,0,0,1,.57-.3,1.68,1.68,0,0,1,.41-.09,1.53,1.53,0,0,1,.58.06l0,0a1.34,1.34,0,0,1,.56.22,1.66,1.66,0,0,1,.37.38,4.13,4.13,0,0,1,.69,1.33,7.05,7.05,0,0,1,.27,1.37,12,12,0,0,1-.09,2.55,19.83,19.83,0,0,1-.55,2.55c-.25.88-.55,1.77-.89,2.67s-.73,1.88-1.17,2.94-1,2.16-1.53,3.3q-1.74,3.48-4.35,8T673.9,69.55l-.45.63c-.34.5-.68,1-1,1.48l-1,1.43-.48,1.54c-.16.51-.32,1-.48,1.49-.08.22-.15.44-.21.67s-.13.46-.21.68v0c-.36,1.18-.69,2.3-1,3.37s-.59,2.17-.87,3.29c-.14.54-.27,1.08-.39,1.63s-.24,1.12-.36,1.7a.49.49,0,0,1,0,.12.51.51,0,0,0,0,.09c-.1.54-.19,1.09-.28,1.66a14.27,14.27,0,0,0-.17,1.73,1.51,1.51,0,0,0,0,.6h.15a.51.51,0,0,0,.21,0,.57.57,0,0,1,.18,0,.57.57,0,0,0,.18,0q.6-.15,1.29-.36t1.38-.45q2.55-.87,4.86-1.83t4.17-1.74q1.92-.84,3.57-1.59,3.33-1.5,5.6-2.58l3.88-1.86L695,79.87l1.81-.9,1.52-.75,1.54-.75a7.37,7.37,0,0,1,1.19-.42,4.94,4.94,0,0,1,1.06-.17,2.32,2.32,0,0,1,.83.11A.76.76,0,0,1,703.36,77.35ZM676.63,58.57q-1,2.43-1.74,4.54l-1.47,4q2-2.85,3.66-5.55t3.08-5.16q1.4-2.46,2.52-4.65c.75-1.46,1.39-2.79,1.93-4s1-2.46,1.38-3.66a30.94,30.94,0,0,0,.93-3.36c.1-.52.18-1,.24-1.52a6.28,6.28,0,0,0,0-1.36,5.68,5.68,0,0,0-.21-1.2l-.09-.23-.09-.22-.09.09c-.1.12-.2.26-.31.42s-.22.32-.32.48q-.33.51-.66,1.08t-.57,1.08c-.4.76-.78,1.53-1.15,2.32s-.76,1.64-1.16,2.54q-1.14,2.55-2.65,6.24T676.63,58.57Zm10-22.53q.06.12.15.12a.09.09,0,0,1,0,0l0,0s0,0,0-.06,0,0-.06,0Zm.06,0,0,0Z" transform="translate(-112.3 -33.87)"/><path class="cls-1" d="M799.54,76.45a.94.94,0,0,1,.36.76,1.9,1.9,0,0,1-.36,1.13,5.86,5.86,0,0,1-.7.76,5.21,5.21,0,0,1-1,.74h0q-.39.24-.63.36l-.72.33-.52.21-.78.3c-.31.12-.69.25-1.14.4L792.4,82c-1.14.32-2.65.7-4.54,1.15s-4.15.88-6.77,1.28c-.94.16-2,.3-3,.43l-3.42.41-1.26.27q-.57.12-1.11.18c-1.08.16-2.14.27-3.19.33s-2.07.08-3.05.06l-.18,0h-.48l-.63-1.35.63-.51.32,0,.31,0,.72,0,.69,0h0l1.31-.12,1.24-.12,3.14-.36,2.86-.36-.09,0a24.22,24.22,0,0,0,2.43-.86,21.5,21.5,0,0,0,2.37-1.15,23.41,23.41,0,0,0,3.83-2.7,22.29,22.29,0,0,0,3.37-3.66,21.77,21.77,0,0,0,2.58-4.59,17.74,17.74,0,0,0,1.29-5.37v0c0-.22,0-.44,0-.65s0-.42,0-.64a12.13,12.13,0,0,0-.19-2.16,10.33,10.33,0,0,0-.62-2.1A6.62,6.62,0,0,0,789.49,57a4.82,4.82,0,0,0-2.31-1.29,7.07,7.07,0,0,0-1.83-.24,6.42,6.42,0,0,0-1.56.18,7.82,7.82,0,0,0-1.54.45c-.49.2-1,.41-1.37.63h0a26.38,26.38,0,0,0-2.46,1.56q-1.08.78-2,1.56-1.8,1.62-3.28,3.22t-3,3.44h0q-1.5,1.86-3.19,4.2t-3.74,5.61q-1,1.68-2.19,3.63t-2.4,4.32q-.87,1.59-1.74,3.3a1.07,1.07,0,0,0-.07.25,1.23,1.23,0,0,1-.08.26c-.08.28-.15.57-.22.87s-.16.61-.26.93l0,0q0,.12,0,.09s0,0,0,.09c-.34,1.14-.68,2.3-1,3.49s-.76,2.36-1.22,3.5l-.06.13-.06.14c-.12.28-.25.55-.39.82s-.29.55-.45.83-.21.33-.34.51a3.52,3.52,0,0,1-.5.54l-.06.06a1.66,1.66,0,0,1-.3.19,1.86,1.86,0,0,1-.42.14,1.15,1.15,0,0,1-.84-.36,1.32,1.32,0,0,1-.15-.27c0-.18-.06-.31-.07-.39a1.94,1.94,0,0,1,0-.24,6.82,6.82,0,0,1,.18-1q.12-.45.27-.93c0-.06,0-.15.08-.26s.05-.19.07-.25c.12-.34.24-.66.35-1s.23-.62.37-1c.5-1.22,1-2.4,1.53-3.53s1-2.2,1.53-3.22l0,.12c.34-1.26.64-2.48.9-3.65s.51-2.3.75-3.4q.87-4,1.56-7.52t1.2-6.19c.06-.3.12-.59.18-.86s.11-.54.15-.82q.45-2.43.78-4.29t.57-3.24q.24-1.38.39-2.31l.24-1.47a2.76,2.76,0,0,0,.08-.44,2,2,0,0,1,0-.31,6.66,6.66,0,0,1,.83-2.21c.37-.59.74-.86,1.12-.82a1,1,0,0,1,.69.61,3.21,3.21,0,0,1,.27,1.4,8.63,8.63,0,0,1-.15,1.5c0,.26-.09.55-.16.88s-.18.82-.32,1.46-.31,1.47-.52,2.5-.49,2.4-.83,4.1-.77,3.79-1.3,6.28-1.17,5.39-1.91,8.69c-.08.34-.16.69-.25,1.05s-.19.72-.29,1.08v0a1.58,1.58,0,0,0-.09.31l-.06.32q1.32-2.34,2.52-4.31c.8-1.31,1.56-2.53,2.28-3.67s1.57-2.42,2.3-3.47,1.43-2,2.11-2.95,1.34-1.77,2-2.55,1.25-1.53,1.87-2.25,1.24-1.38,1.86-2,1.27-1.27,2-1.87,1.4-1.19,2.16-1.76a18.64,18.64,0,0,1,2.58-1.6c.46-.22,1-.44,1.55-.66a9,9,0,0,1,1.72-.48,8.63,8.63,0,0,1,1.86-.18,10.34,10.34,0,0,1,2.19.27,8.17,8.17,0,0,1,2.21.88,7.24,7.24,0,0,1,1.9,1.61,8.39,8.39,0,0,1,1.41,2.25,11.72,11.72,0,0,1,.78,2.7,17,17,0,0,1,.18,2.46,16.38,16.38,0,0,1-.15,2.23c-.1.73-.23,1.44-.39,2.12a21.45,21.45,0,0,1-2,5.25,22.3,22.3,0,0,1-2.67,3.91,26.74,26.74,0,0,1-3,3c-.52.44-1,.84-1.56,1.21s-1,.73-1.59,1.07c1.32-.26,2.49-.52,3.51-.77s1.91-.48,2.67-.7q1.8-.51,2.88-.9t1.86-.75c.52-.22,1-.44,1.44-.65s.9-.45,1.38-.73a9.34,9.34,0,0,1,.87-.5l.78-.37a4,4,0,0,1,.8-.29.87.87,0,0,1,.67.14Z" transform="translate(-112.3 -33.87)"/><path class="cls-1" d="M797.2,77.11a1.71,1.71,0,0,1,1.2-.47,1.32,1.32,0,0,1,1,.44,1.37,1.37,0,0,1,.23,1.06,2,2,0,0,1-.65,1.1l0,0-.15.09-.12.1-.12.08a5.69,5.69,0,0,0-.47.33l-1,.75c-.38.32-.85.73-1.41,1.24s-1.22,1.16-2,1.94l-.12.12q-.51.57-1.14,1.32t-1.23,1.59q-.63.9-1.32,2.07a12.4,12.4,0,0,0-1.14,2.61.22.22,0,0,0,0,.1.26.26,0,0,1,0,.11l-.12.19c0,.07-.09.1-.15.08s.12,0,.36-.09l.36-.11.33-.1a13.25,13.25,0,0,0,1.66-.86c.59-.35,1.21-.72,1.85-1.12s1.28-.82,1.92-1.25L797,87h0l.51-.38.54-.37.54-.39.12-.11.09-.07.33-.06,1.14,0,.36.27.51.33a5.3,5.3,0,0,0,.57.33h.21l-.06,0-.06,0a11.88,11.88,0,0,0,1.11.6v0q1.71,1,2.82,1.47t2,.87c.58.26,1.15.48,1.71.67l1.8.62c.58.16,1.25.32,2,.49a22.3,22.3,0,0,0,2.67.41,5.85,5.85,0,0,0,.64,0h.71l1.06,0c.4,0,.79-.06,1.19-.12a16.09,16.09,0,0,0,2.19-.5,16.54,16.54,0,0,0,2.43-.94,43.52,43.52,0,0,0,4.75-2.61q2.05-1.32,3.68-2.49c1.1-.78,2.06-1.52,2.88-2.21s1.53-1.29,2.13-1.81c.92-.84,1.65-1.53,2.19-2.06s.93-.92,1.17-1.18l.21-.21a1.93,1.93,0,0,1,1.11-.57,1.21,1.21,0,0,1,1,.3,1.24,1.24,0,0,1,.38,1.08,2,2,0,0,1-.62,1.2l-.27.22c-.1.09-.25.23-.47.41l-.82.69-1.35,1.11c-.52.46-1.2,1-2,1.63S836.22,85.14,835,86q-.84.6-2,1.32c-.74.48-1.55,1-2.42,1.48s-1.79,1-2.77,1.55-2,1-3,1.5A19.18,19.18,0,0,1,821.78,93a17.85,17.85,0,0,1-2.8.53q-.9.09-1.83.09c-.46,0-.92,0-1.38,0l-1.26-.1a26.2,26.2,0,0,1-3.19-.5c-.94-.21-1.78-.41-2.54-.61s-1.48-.45-2.16-.68-1.42-.51-2.22-.85c-.4-.18-.82-.38-1.24-.59s-.89-.45-1.37-.73L801,89l-.81-.46-.72-.45c-1.56,1-2.92,1.8-4.06,2.47s-2.23,1.26-3.23,1.76c-.44.22-.9.43-1.38.64a14.06,14.06,0,0,1-1.5.56,4.24,4.24,0,0,1-1.08.12l-.28-.06a1,1,0,0,1-.35-.18l0,0a1.11,1.11,0,0,1-.66-.9,1.59,1.59,0,0,1,0-.53,3.86,3.86,0,0,1,.09-.49v-.09q0-.15.09-.39a4.42,4.42,0,0,1,.15-.48,12.88,12.88,0,0,1,1-2.51c.4-.73.79-1.39,1.17-2s.78-1.2,1.14-1.67.7-.9,1-1.3v0c.58-.74,1.1-1.38,1.58-1.91s.87-1,1.21-1.33l.21-.21a3.48,3.48,0,0,0,.34-.38c.09-.11.19-.21.29-.31l.58-.62.47-.46q.21-.21.42-.39T797.2,77.11Z" transform="translate(-112.3 -33.87)"/><path class="cls-1" d="M888.37,77.2c.22.34.16.76-.18,1.27a4.52,4.52,0,0,1-1.56,1.37l-.45.24-.6.3-.32.15-.37.21-1.92.87L879.82,83q-2,.84-4.79,2t-6.91,2.54c-1.32.46-2.79.94-4.4,1.45s-3.3,1-5.08,1.55c-.9.26-1.84.52-2.81.78l-3,.78c-1.08.26-2.21.51-3.38.76s-2.29.47-3.37.65l-.86.1-.82.11h-.26l-.22,0h-.39l-.12,0h-.12l-.36,0a1.57,1.57,0,0,1-.42-.1,4,4,0,0,1-.89-.8,3.7,3.7,0,0,1-.46-.79,7.92,7.92,0,0,1-.26-.78,7.2,7.2,0,0,1-.16-.78c0-.32-.07-.64-.09-1s0-.63,0-1q0-1,.09-1.92t.21-1.74c.08-.58.15-1.08.22-1.5s.15-.82.23-1.2.16-.75.24-1.11l.27-1.23a2.11,2.11,0,0,1-1,0,.8.8,0,0,1-.6-.43,1.21,1.21,0,0,1,.21-1.25,6.4,6.4,0,0,1,1.32-1.42.4.4,0,0,1,.15-.11.25.25,0,0,0,.12-.07l-.06,0,.28-.18.38-.27.09-.08.09-.07q.9-3.33,1.66-5.84T846,65.56c.46-1.4.92-2.77,1.39-4.1s1-2.75,1.61-4.27S850.27,54,851.11,52s1.91-4.19,3.21-6.75q1.35-2.58,2.55-4.68a33.11,33.11,0,0,1,2.52-3.81l.15-.15c.2-.24.4-.48.61-.71a3.7,3.7,0,0,1,.74-.61l.42-.23a1.37,1.37,0,0,1,.39-.13,1.18,1.18,0,0,1,.49,0,1.91,1.91,0,0,1,.47.17,1.61,1.61,0,0,1,.61.57,2.91,2.91,0,0,1,.29.63,6.06,6.06,0,0,1,.21,1.95c0,.32,0,.61,0,.88s0,.53-.09.77a27.7,27.7,0,0,1-.51,2.89c-.22,1-.47,1.91-.75,2.87s-.54,1.85-.84,2.8-.64,2-1,3a93.78,93.78,0,0,1-3.68,8.65q-1.82,3.68-3.37,6.32t-2.85,4.5q-1.23,1.74-2.13,2.88c-.58.72-1.11,1.33-1.58,1.84s-.9,1-1.3,1.37-.61.6-.87.84-.54.48-.84.72a.25.25,0,0,1,0,.07.25.25,0,0,0,0,.08l0,0a1.43,1.43,0,0,1-.08.22,1.38,1.38,0,0,0-.07.26c-.24,1-.48,2-.72,3.28s-.44,2.56-.6,4a9.31,9.31,0,0,0-.08,1c0,.34,0,.67,0,1s0,.83,0,1.23a6.5,6.5,0,0,0,.2,1.17,2.38,2.38,0,0,0,.48,1l.12.12a5.94,5.94,0,0,0,1.26,0c.44,0,.88-.11,1.32-.19q2.88-.51,5.55-1.2t4.89-1.32h0q2.37-.69,4.47-1.38t4-1.38q3.81-1.35,6.7-2.49t5.15-2.13q3.63-1.62,5.59-2.66l2.75-1.45h0a.66.66,0,0,1,.18-.09s0,0,.09-.06a5.24,5.24,0,0,1,2.07-.72q1-.09,1.26.45Zm-41.73-7.35c-.22.58-.44,1.19-.66,1.84s-.44,1.35-.66,2.09c.64-.66,1.41-1.53,2.31-2.6a49.86,49.86,0,0,0,3.12-4.24,78.07,78.07,0,0,0,4-6.87,92.87,92.87,0,0,0,4.32-9.69c.4-1.06.77-2.17,1.12-3.33s.67-2.31,1-3.45c.14-.58.26-1.19.37-1.83s.21-1.29.29-2a12.85,12.85,0,0,0,.09-2,4,4,0,0,0-.09-.75,2.57,2.57,0,0,0-.42.48c-.18.22-.38.48-.59.78s-.42.62-.64,1c-.4.64-.79,1.3-1.17,2s-.75,1.39-1.11,2.09q-1.14,2.19-2.22,4.53t-2.22,4.89q-1.41,3.21-2.37,5.61t-1.74,4.32a2.13,2.13,0,0,0-.09.27,1.17,1.17,0,0,1-.09.24c-.44,1.14-.87,2.23-1.28,3.28S847,68.71,846.64,69.85ZM862,36.94l0,0Z" transform="translate(-112.3 -33.87)"/><path class="cls-1" d="M933,77.2c.22.34.16.76-.18,1.27a4.52,4.52,0,0,1-1.56,1.37l-.45.24-.6.3-.32.15-.37.21-1.92.87L924.49,83q-1.95.84-4.79,2t-6.91,2.54c-1.32.46-2.79.94-4.4,1.45s-3.3,1-5.08,1.55c-.9.26-1.84.52-2.81.78l-3,.78c-1.08.26-2.21.51-3.38.76s-2.29.47-3.37.65l-.86.1-.82.11h-.26l-.22,0h-.39l-.12,0H888l-.36,0a1.57,1.57,0,0,1-.42-.1,4,4,0,0,1-.89-.8,3.7,3.7,0,0,1-.46-.79,7.92,7.92,0,0,1-.26-.78,7.2,7.2,0,0,1-.16-.78c0-.32-.07-.64-.09-1s0-.63,0-1q0-1,.09-1.92t.21-1.74c.08-.58.15-1.08.22-1.5s.15-.82.23-1.2l.24-1.11.27-1.23a2.11,2.11,0,0,1-1,0,.8.8,0,0,1-.6-.43,1.21,1.21,0,0,1,.21-1.25,6.4,6.4,0,0,1,1.32-1.42.4.4,0,0,1,.15-.11.25.25,0,0,0,.12-.07l-.06,0,.28-.18.38-.27.09-.08.09-.07q.9-3.33,1.66-5.84t1.46-4.57c.46-1.4.92-2.77,1.39-4.1s1-2.75,1.61-4.27S894.94,54,895.78,52s1.91-4.19,3.21-6.75q1.35-2.58,2.55-4.68a33.11,33.11,0,0,1,2.52-3.81l.15-.15c.2-.24.4-.48.61-.71a3.7,3.7,0,0,1,.74-.61l.42-.23a1.37,1.37,0,0,1,.39-.13,1.18,1.18,0,0,1,.49,0,1.91,1.91,0,0,1,.47.17,1.61,1.61,0,0,1,.61.57,2.91,2.91,0,0,1,.29.63,6.06,6.06,0,0,1,.21,1.95c0,.32,0,.61,0,.88s0,.53-.09.77a27.7,27.7,0,0,1-.51,2.89c-.22,1-.47,1.91-.75,2.87s-.54,1.85-.84,2.8-.64,2-1,3a93.78,93.78,0,0,1-3.68,8.65q-1.82,3.68-3.37,6.32t-2.85,4.5q-1.23,1.74-2.13,2.88c-.58.72-1.11,1.33-1.58,1.84s-.9,1-1.3,1.37-.61.6-.87.84-.54.48-.84.72a.25.25,0,0,1,0,.07.25.25,0,0,0,0,.08l0,0a1.43,1.43,0,0,1-.08.22,1.38,1.38,0,0,0-.07.26c-.24,1-.48,2-.72,3.28s-.44,2.56-.6,4a9.31,9.31,0,0,0-.08,1c0,.34,0,.67,0,1s0,.83,0,1.23a6.5,6.5,0,0,0,.2,1.17,2.38,2.38,0,0,0,.48,1l.12.12a5.94,5.94,0,0,0,1.26,0c.44,0,.88-.11,1.32-.19q2.88-.51,5.55-1.2t4.89-1.32h0q2.37-.69,4.47-1.38t4-1.38q3.81-1.35,6.7-2.49t5.15-2.13q3.63-1.62,5.59-2.66l2.75-1.45h0l.18-.09s.05,0,.09-.06a5.24,5.24,0,0,1,2.07-.72q1-.09,1.26.45Zm-41.73-7.35c-.22.58-.44,1.19-.66,1.84s-.44,1.35-.66,2.09c.64-.66,1.41-1.53,2.31-2.6a49.86,49.86,0,0,0,3.12-4.24,78.07,78.07,0,0,0,4-6.87,92.87,92.87,0,0,0,4.32-9.69c.4-1.06.77-2.17,1.12-3.33s.67-2.31.95-3.45c.14-.58.26-1.19.37-1.83s.21-1.29.29-2a12.85,12.85,0,0,0,.09-2,4,4,0,0,0-.09-.75,2.57,2.57,0,0,0-.42.48c-.18.22-.38.48-.59.78s-.42.62-.64,1c-.4.64-.79,1.3-1.17,2s-.75,1.39-1.11,2.09q-1.14,2.19-2.22,4.53t-2.22,4.89q-1.41,3.21-2.37,5.61T894,62.77a2.13,2.13,0,0,0-.09.27,1.17,1.17,0,0,1-.09.24c-.44,1.14-.87,2.23-1.28,3.28S891.71,68.71,891.31,69.85ZM906.7,36.94l0,0Z" transform="translate(-112.3 -33.87)"/><path class="cls-1" d="M930.64,77.11a1.71,1.71,0,0,1,1.2-.47,1.32,1.32,0,0,1,1,.44,1.33,1.33,0,0,1,.22,1.06,1.88,1.88,0,0,1-.64,1.1l0,0-.15.09-.12.1-.12.08a5.69,5.69,0,0,0-.47.33l-1,.75c-.38.32-.85.73-1.41,1.24s-1.22,1.16-2,1.94l-.12.12q-.51.57-1.14,1.32t-1.23,1.59q-.63.9-1.32,2.07a12.4,12.4,0,0,0-1.14,2.61.22.22,0,0,0,0,.1.26.26,0,0,1,0,.11l-.12.19c0,.07-.09.1-.15.08s.12,0,.36-.09l.36-.11.33-.1a14,14,0,0,0,1.66-.86c.59-.35,1.21-.72,1.85-1.12s1.28-.82,1.92-1.25l2-1.36h0l.51-.38.54-.37.54-.39.12-.11.09-.07.33-.06,1.14,0,.36.27.51.33a5.3,5.3,0,0,0,.57.33h.21l-.06,0-.06,0a11.88,11.88,0,0,0,1.11.6v0q1.71,1,2.82,1.47t2,.87c.58.26,1.15.48,1.71.67l1.8.62c.58.16,1.25.32,2,.49a22.3,22.3,0,0,0,2.67.41,5.85,5.85,0,0,0,.64,0h.71l1.06,0c.39,0,.79-.06,1.19-.12a16.09,16.09,0,0,0,2.19-.5,16.54,16.54,0,0,0,2.43-.94,43.52,43.52,0,0,0,4.75-2.61q2.06-1.32,3.68-2.49c1.1-.78,2.06-1.52,2.88-2.21s1.53-1.29,2.13-1.81c.92-.84,1.65-1.53,2.19-2.06s.93-.92,1.17-1.18l.21-.21a1.93,1.93,0,0,1,1.11-.57,1.21,1.21,0,0,1,1.42,1.38,2,2,0,0,1-.61,1.2l-.27.22-.47.41-.82.69-1.35,1.11c-.52.46-1.2,1-2,1.63s-1.87,1.39-3.09,2.27q-.84.6-2,1.32c-.74.48-1.55,1-2.42,1.48s-1.79,1-2.77,1.55-2,1-3,1.5A19.53,19.53,0,0,1,955.22,93a17.85,17.85,0,0,1-2.8.53q-.9.09-1.83.09c-.46,0-.92,0-1.38,0l-1.26-.1a26.71,26.71,0,0,1-3.2-.5c-.93-.21-1.77-.41-2.53-.61s-1.48-.45-2.16-.68-1.42-.51-2.22-.85l-1.25-.59c-.43-.21-.88-.45-1.36-.73l-.75-.44-.81-.46-.72-.45q-2.34,1.47-4.07,2.47c-1.15.67-2.22,1.26-3.22,1.76-.44.22-.9.43-1.38.64a14.06,14.06,0,0,1-1.5.56,4.24,4.24,0,0,1-1.08.12l-.29-.06a1,1,0,0,1-.34-.18l0,0a1.11,1.11,0,0,1-.66-.9,1.59,1.59,0,0,1,0-.53,3.86,3.86,0,0,1,.09-.49v-.09q0-.15.09-.39a4.42,4.42,0,0,1,.15-.48,12.88,12.88,0,0,1,1-2.51c.4-.73.79-1.39,1.17-2s.78-1.2,1.14-1.67.7-.9,1-1.3v0c.58-.74,1.1-1.38,1.57-1.91s.88-1,1.22-1.33l.21-.21a5,5,0,0,0,.34-.38c.09-.11.19-.21.29-.31s.41-.45.58-.62l.47-.46q.21-.21.42-.39T930.64,77.11Z" transform="translate(-112.3 -33.87)"/><path class="cls-1" d="M1020.67,77.35c.24.32.17.78-.2,1.39a5.76,5.76,0,0,1-1.75,1.73l-.77.46-1.3.77c-.56.32-1.35.75-2.36,1.3s-2.29,1.18-3.85,1.88-3.6,1.58-6,2.52a90.93,90.93,0,0,1-8.67,2.82h0q-2.61.75-5.61,1.47T983.74,93l-.29,0-.28,0-.53.09-.55.09-.32.12-.34.12.33-2.19.94-.42c.35-.16.67-.32.95-.48a29.25,29.25,0,0,0,3.42-2.1,19.85,19.85,0,0,0,3.15-2.76,12.18,12.18,0,0,0,1.12-1.5,5.46,5.46,0,0,0,.71-1.65,3.49,3.49,0,0,0,.09-.84,3.41,3.41,0,0,0-.2-1.13,3.83,3.83,0,0,0-.49-1l-.26-.32-.25-.28-.23-.21a.92.92,0,0,0-.16-.12l0,0a1.58,1.58,0,0,0-.65,0,4.35,4.35,0,0,0-.61.2l0,0a11.68,11.68,0,0,0-1.41.73c-.44.27-.86.55-1.26.83a23.41,23.41,0,0,0-2,1.5l-1.89,1.59-.54.45-1.67,1.5-1.54,1.41,0,0a1.29,1.29,0,0,0-.21.19,1.34,1.34,0,0,1-.21.2l-.86.81-.82.78c-.74.7-1.46,1.36-2.15,2s-1.36,1.19-2,1.71l-.44.33a2.91,2.91,0,0,0-.28.24l-.21.09,0,0-.39.22a1.6,1.6,0,0,1-.42.17l-.39,0a1,1,0,0,1-.45-.18,1.26,1.26,0,0,1-.3-.41.89.89,0,0,1-.06-.31,1.07,1.07,0,0,1,0-.66,4.39,4.39,0,0,1,.15-.69c.08-.32.16-.65.25-1l.26-1c0-.16.08-.32.13-.48s.1-.32.14-.48q.75-2.43,1.48-4.65t1.7-4.74a2.62,2.62,0,0,1,.13-.54,4.33,4.33,0,0,1,.29-.63c.36-1,.74-2,1.15-3s.87-2.2,1.37-3.42,1-2.53,1.63-3.93,1.25-2.91,2-4.53q2.85-6.42,5-11t3.93-7.75v0a1.62,1.62,0,0,0,.1-.18,1.74,1.74,0,0,1,.11-.18q.42-.75.84-1.47t.87-1.41q.51-.78,1-1.5a11.24,11.24,0,0,1,1.23-1.44l.45-.35a5.09,5.09,0,0,1,.45-.31,1.65,1.65,0,0,1,.69-.24,1.68,1.68,0,0,1,.84.09h0a2.12,2.12,0,0,1,.66.36,2.32,2.32,0,0,1,.51.57,3.3,3.3,0,0,1,.42,1.17,7.13,7.13,0,0,1,.09,1.17,9.67,9.67,0,0,1-.12,1.53q-.12.75-.27,1.47a31.7,31.7,0,0,1-.87,3.15q-.51,1.53-1,2.88c-.34.9-.71,1.78-1.1,2.64l-1.09,2.43q-1,2.19-2.12,4.17c-.73,1.32-1.41,2.52-2,3.6q-1.92,3.27-3.44,5.49t-2.59,3.69c-.74,1-1.37,1.85-1.88,2.5s-1,1.22-1.36,1.7-.77.89-1.1,1.3-.71.85-1.15,1.31c-.18.18-.37.35-.56.52a4.71,4.71,0,0,1-.61.47c-.4,1-.76,2-1.08,2.83s-.62,1.71-.9,2.51-.59,1.56-.86,2.29-.52,1.45-.76,2.15l-.45,1.35a.64.64,0,0,1,.15-.12l.37-.32.38-.31,1.35-1.17,1-1,1.14-1c.46-.4.93-.83,1.42-1.28s1-.9,1.55-1.36,1-.91,1.57-1.4,1.15-1,1.73-1.45v0c.62-.5,1.26-1,1.93-1.53A22.38,22.38,0,0,1,987.28,78l.69-.38c.24-.13.47-.24.69-.34a7.1,7.1,0,0,1,.78-.27,3,3,0,0,1,1-.09,2.16,2.16,0,0,1,.66.1,2,2,0,0,1,.63.35q.18.15.36.33l.33.33.54.72a4.11,4.11,0,0,1,.48.78,6.15,6.15,0,0,1,.34,1,4.71,4.71,0,0,1,.14,1.08,5.36,5.36,0,0,1-.33,1.86v0a8.48,8.48,0,0,1-.84,1.77,14.07,14.07,0,0,1-1.17,1.59,22.18,22.18,0,0,1-1.83,1.8,20.17,20.17,0,0,1-2,1.53q2.07-.45,4-1,4.8-1.26,8.44-2.6t6.38-2.56q2.7-1.17,4.59-2.21c1.26-.69,2.31-1.28,3.15-1.78s1.3-.81,1.75-1.11l1-.69.12-.06a6.87,6.87,0,0,1,2.14-1C1020,76.92,1020.43,77,1020.67,77.35Zm-31.8-27.87q-2.31,5-4.68,10.57t-5,12l-.12.3-.12.3a1.19,1.19,0,0,1,.15-.18,2,2,0,0,0,.18-.21q1.08-1.26,2.86-3.56t3.95-5.56q1.11-1.74,2.38-3.89t2.54-4.6c.4-.82.81-1.69,1.24-2.61s.87-1.92,1.31-3,.82-2.09,1.21-3.2a22.83,22.83,0,0,0,.92-3.46,13.43,13.43,0,0,0,.27-2,8.43,8.43,0,0,0,0-.86,1.33,1.33,0,0,0-.22-.67.29.29,0,0,0-.27-.18,1.14,1.14,0,0,0-.42.27,7.33,7.33,0,0,0-.71.75c-.23.28-.45.58-.67.9l0,0a41.24,41.24,0,0,0-2.51,4.2q-1.16,2.22-2.32,4.65Z" transform="translate(-112.3 -33.87)"/><path class="cls-1" d="M113.6,96.07v-1.5h899.6v1.5Z" transform="translate(-112.3 -33.87)"/></g><g id="P_H_O_T_O_G" data-name="P           H          O           T          O           G"><path class="cls-1" d="M166.15,140.15a5.55,5.55,0,0,1-.78,3,6.16,6.16,0,0,1-2.08,2,9.5,9.5,0,0,1-3,1.13,16.94,16.94,0,0,1-3.44.34H155.5l-1.5,8.52h-1.26l3.51-20h4.23a6.72,6.72,0,0,1,2.3.38,5.48,5.48,0,0,1,1.78,1,4.69,4.69,0,0,1,1.17,1.58A4.63,4.63,0,0,1,166.15,140.15Zm-9.06,5.43a16.06,16.06,0,0,0,2.72-.24,8.06,8.06,0,0,0,2.52-.85,5.38,5.38,0,0,0,1.84-1.64,4.42,4.42,0,0,0,.72-2.61,3.7,3.7,0,0,0-.34-1.62,3.84,3.84,0,0,0-1-1.24,4.21,4.21,0,0,0-1.42-.81,5.37,5.37,0,0,0-1.76-.29h-3.09l-1.65,9.3Z" transform="translate(-112.3 -33.87)"/><path class="cls-1" d="M249.43,155.18l1.68-9.57H239.38l-1.68,9.57h-1.26l3.51-20h1.26l-1.65,9.27h11.73l1.65-9.27h1.26l-3.51,20Z" transform="translate(-112.3 -33.87)"/><path class="cls-1" d="M338.35,143.42a13.8,13.8,0,0,1-.75,4.5,12.73,12.73,0,0,1-2.12,3.89,10.36,10.36,0,0,1-3.31,2.71,9.24,9.24,0,0,1-4.35,1,8.22,8.22,0,0,1-3.44-.69A7.83,7.83,0,0,1,321.8,153a8,8,0,0,1-1.62-2.71,9.58,9.58,0,0,1-.55-3.26,15.09,15.09,0,0,1,.7-4.63,12,12,0,0,1,2.06-3.89,9.75,9.75,0,0,1,7.83-3.66,8,8,0,0,1,3.27.66,7.88,7.88,0,0,1,2.58,1.8,8.1,8.1,0,0,1,1.68,2.72A9.46,9.46,0,0,1,338.35,143.42Zm-10.47,11a7.82,7.82,0,0,0,3.73-.9,9.25,9.25,0,0,0,2.91-2.41,11.39,11.39,0,0,0,1.89-3.51,12.91,12.91,0,0,0,.68-4.16,8.78,8.78,0,0,0-.51-3,7.05,7.05,0,0,0-1.44-2.4,6.47,6.47,0,0,0-2.22-1.56,7.06,7.06,0,0,0-2.82-.56,8.06,8.06,0,0,0-4,1,9.08,9.08,0,0,0-2.88,2.49,11.1,11.1,0,0,0-1.77,3.52,14,14,0,0,0-.6,4.08,9,9,0,0,0,.49,3.06,7,7,0,0,0,1.4,2.37,6.1,6.1,0,0,0,2.19,1.53A7.47,7.47,0,0,0,327.88,154.46Z" transform="translate(-112.3 -33.87)"/><path class="cls-1" d="M418.29,136.28,415,155.18H413.7l3.33-18.9h-5.79l.18-1.08h12.84l-.18,1.08Z" transform="translate(-112.3 -33.87)"/><path class="cls-1" d="M506.4,143.42a13.8,13.8,0,0,1-.75,4.5,12.7,12.7,0,0,1-2.11,3.89,10.51,10.51,0,0,1-3.32,2.71,9.24,9.24,0,0,1-4.35,1,8.18,8.18,0,0,1-3.43-.69,7.83,7.83,0,0,1-2.58-1.86,8,8,0,0,1-1.62-2.71,9.35,9.35,0,0,1-.56-3.26,15.1,15.1,0,0,1,.71-4.63,11.77,11.77,0,0,1,2.05-3.89,9.75,9.75,0,0,1,7.83-3.66,8,8,0,0,1,3.27.66,7.88,7.88,0,0,1,2.58,1.8A8.1,8.1,0,0,1,505.8,140,9.46,9.46,0,0,1,506.4,143.42Zm-10.47,11a7.89,7.89,0,0,0,3.74-.9,9.25,9.25,0,0,0,2.91-2.41,11.39,11.39,0,0,0,1.89-3.51,12.9,12.9,0,0,0,.67-4.16,8.78,8.78,0,0,0-.51-3,7.05,7.05,0,0,0-1.44-2.4,6.47,6.47,0,0,0-2.22-1.56,7.06,7.06,0,0,0-2.82-.56,8.06,8.06,0,0,0-4,1,9.08,9.08,0,0,0-2.88,2.49,11.1,11.1,0,0,0-1.77,3.52,14,14,0,0,0-.6,4.08,9,9,0,0,0,.5,3.06,7,7,0,0,0,1.39,2.37,6.1,6.1,0,0,0,2.19,1.53A7.47,7.47,0,0,0,495.93,154.46Z" transform="translate(-112.3 -33.87)"/><path class="cls-1" d="M595.56,137.33a12.67,12.67,0,0,0-2.9-1.05,13,13,0,0,0-2.95-.36,10.21,10.21,0,0,0-4.17.81,8.85,8.85,0,0,0-3.09,2.24,9.77,9.77,0,0,0-1.92,3.36,12.76,12.76,0,0,0-.66,4.15,9,9,0,0,0,.6,3.38,7,7,0,0,0,1.68,2.5,7.23,7.23,0,0,0,2.62,1.56,10.39,10.39,0,0,0,3.44.54,13.72,13.72,0,0,0,2.11-.16,9,9,0,0,0,1.91-.5l1.23-6.9h1.23l-1.35,7.68a12.44,12.44,0,0,1-2.58.74,16.23,16.23,0,0,1-2.73.22,11.08,11.08,0,0,1-3.92-.66,8.44,8.44,0,0,1-3-1.84,8.08,8.08,0,0,1-1.87-2.85,9.92,9.92,0,0,1-.66-3.68,14.06,14.06,0,0,1,.7-4.48,10.68,10.68,0,0,1,2.1-3.71,10.09,10.09,0,0,1,3.48-2.53,11.66,11.66,0,0,1,4.85-.95,14.63,14.63,0,0,1,3.18.36,11.65,11.65,0,0,1,3,1.08Z" transform="translate(-112.3 -33.87)"/><path class="cls-1" d="M680.91,140a5.54,5.54,0,0,1-1.9,4.31,7.47,7.47,0,0,1-2,1.26,11.67,11.67,0,0,1-2.46.73l5.58,8.88h-1.41l-5.43-8.7-.78.05H670l-1.5,8.64h-1.27l3.52-20h4.52a7,7,0,0,1,2.23.35,5.67,5.67,0,0,1,1.78,1,4.55,4.55,0,0,1,1.2,1.52A4.38,4.38,0,0,1,680.91,140Zm-9.07,5.46a14.7,14.7,0,0,0,2.65-.25,8.58,8.58,0,0,0,2.51-.87,5.65,5.65,0,0,0,1.89-1.64,4.24,4.24,0,0,0,.75-2.58,3.42,3.42,0,0,0-1.44-2.91,4.49,4.49,0,0,0-1.48-.7,6.44,6.44,0,0,0-1.69-.23h-3.21l-1.66,9.18Z" transform="translate(-112.3 -33.87)"/><path class="cls-1" d="M761.45,155.18h-1.23l-1.11-5.43h-9.9l-3,5.43h-1.35l11.28-20h1Zm-11.64-6.51h9.09l-2.43-12Z" transform="translate(-112.3 -33.87)"/><path class="cls-1" d="M841.55,140.15a5.55,5.55,0,0,1-.78,3,6.19,6.19,0,0,1-2.09,2,9.5,9.5,0,0,1-3,1.13,16.84,16.84,0,0,1-3.43.34H830.9l-1.5,8.52h-1.26l3.51-20h4.23a6.67,6.67,0,0,1,2.29.38,5.52,5.52,0,0,1,1.79,1,4.69,4.69,0,0,1,1.17,1.58A4.63,4.63,0,0,1,841.55,140.15Zm-9.06,5.43a16,16,0,0,0,2.71-.24,8.06,8.06,0,0,0,2.52-.85,5.42,5.42,0,0,0,1.85-1.64,4.42,4.42,0,0,0,.72-2.61,3.7,3.7,0,0,0-.35-1.62,3.81,3.81,0,0,0-.94-1.24,4.26,4.26,0,0,0-1.43-.81,5.31,5.31,0,0,0-1.75-.29h-3.09l-1.65,9.3Z" transform="translate(-112.3 -33.87)"/><path class="cls-1" d="M918.53,155.18l1.68-9.57H908.48l-1.68,9.57h-1.26l3.51-20h1.26l-1.65,9.27h11.73L922,135.2h1.26l-3.51,20Z" transform="translate(-112.3 -33.87)"/><path class="cls-1" d="M1001.92,135.2h1.44L994.78,147l-1.44,8.16h-1.26l1.47-8.31-4.47-11.67h1.29l4,10.56Z" transform="translate(-112.3 -33.87)"/></g></svg>